<svg width="60" height="59" viewBox="0 0 60 59" fill="none" xmlns="http://www.w3.org/2000/svg">
<rect width="60" height="59" rx="12" fill="#EAF6FC"/>
<g clip-path="url(#clip0_2698_107468)">
<path d="M42 40.0974H41.2046V24.7594H42V23.3568H36.6266V26.1462H38.8541V27.5488H36.6266V28.9516H38.8541V30.3542H36.6266V31.7568H38.8541V33.1594H36.6266V34.5621H38.8541V35.9647H36.6266V40.0976H35.2672V20.7091L30 17.5L24.7328 20.7091V40.0974H23.3734V35.9645H21.1615V34.5621H23.3734V33.1594H21.1615V31.7568H23.3734V30.354H21.1615V28.9516H23.3734V27.5488H21.1615V26.1462H23.3734V23.3568H18V24.7594H18.811V40.0974H18V41.5H42V40.0974ZM31.9638 23.1543H33.3664V24.5569H31.9638V23.1543ZM31.9638 26.0995H33.3664V27.5021H31.9638V26.0995ZM31.9638 29.045H33.3664V30.4476H31.9638V29.045ZM31.9638 31.9902H33.3664V33.3928H31.9638V31.9902ZM31.9638 34.9355H33.3664V36.3381H31.9638V34.9355ZM29.2987 23.1543H30.7013V24.5569H29.2987V23.1543ZM29.2987 26.0995H30.7013V27.5021H29.2987V26.0995ZM29.2987 29.045H30.7013V30.4476H29.2987V29.045ZM29.2987 31.9902H30.7013V33.3928H29.2987V31.9902ZM29.2987 34.9355H30.7013V36.3381H29.2987V34.9355ZM26.5871 23.1543H27.9899V24.5569H26.5871V23.1543ZM26.5871 26.0995H27.9899V27.5021H26.5871V26.0995ZM26.5871 29.045H27.9899V30.4476H26.5871V29.045ZM26.5871 31.9902H27.9899V33.3928H26.5871V31.9902ZM26.5871 34.9355H27.9899V36.3381H26.5871V34.9355ZM29.2987 37.6004H30.7013V40.0974H29.2987V37.6004Z" fill="#59B4D1"/>
</g>
<defs>
<clipPath id="clip0_2698_107468">
<rect width="24" height="24" fill="white" transform="translate(18 17.5)"/>
</clipPath>
</defs>
</svg>
